<svg xmlns="http://www.w3.org/2000/svg" width="530" height="540" viewBox="0 0 530 540">
  <defs>
    <linearGradient id="germany" x1="0%" y1="0%" x2="100%" y2="0%">
      <stop offset="0%" stop-color="#000000"/>
      <stop offset="50%" stop-color="#DD0000"/>
      <stop offset="100%" stop-color="#FFCE00"/>
    </linearGradient>
  </defs>
  <path d="M 56 45 L 45 60 L 43 68 L 44 78 L 49 86 L 57 87 L 63 84 L 84 68 L 103 58 L 110 56 L 121 56 L 130 65 L 132 76 L 131 93 L 117 151 L 94 230 L 67 304 L 47 366 L 11 454 L 6 470 L 5 484 L 10 488 L 24 494 L 44 495 L 53 491 L 62 482 L 71 462 L 77 443 L 115 361 L 174 243 L 209 178 L 232 146 L 258 120 L 279 107 L 290 104 L 299 104 L 303 111 L 306 124 L 304 152 L 270 270 L 253 316 L 243 349 L 239 355 L 219 412 L 217 422 L 219 437 L 228 447 L 238 451 L 252 452 L 261 449 L 286 401 L 325 316 L 372 231 L 411 175 L 435 145 L 456 127 L 459 127 L 463 123 L 482 120 L 486 123 L 489 133 L 488 154 L 478 190 L 470 208 L 471 209 L 460 241 L 446 274 L 417 361 L 402 432 L 401 467 L 404 483 L 414 504 L 413 506 L 414 505 L 427 518 L 437 523 L 447 525 L 471 525 L 489 521 L 501 513 L 507 502 L 506 489 L 502 484 L 496 482 L 480 482 L 469 476 L 461 461 L 459 438 L 465 394 L 477 346 L 499 277 L 501 275 L 516 229 L 518 228 L 519 220 L 529 193 L 529 89 L 525 83 L 517 75 L 505 70 L 482 69 L 462 75 L 434 92 L 420 105 L 395 136 L 365 179 L 336 229 L 331 231 L 329 229 L 329 225 L 340 196 L 353 134 L 353 103 L 351 91 L 343 72 L 331 59 L 313 52 L 293 53 L 276 59 L 251 75 L 230 95 L 190 146 L 170 176 L 159 202 L 156 203 L 154 201 L 155 193 L 170 147 L 177 119 L 181 93 L 180 55 L 177 44 L 170 31 L 163 24 L 151 18 L 142 16 L 121 16 L 90 24 L 70 34 Z" fill="url(#germany)" fill-rule="evenodd"/>
</svg>